<svg width="34" height="34" viewBox="0 0 34 34" fill="none" xmlns="http://www.w3.org/2000/svg">
<rect width="33.33" height="33.33" rx="2" fill="#A1A6B4"/>
<path d="M17.7483 23.332H16.3849C16.3849 23.332 13.3767 23.5131 10.7272 20.7545C7.83786 17.7461 5.28638 11.7765 5.28638 11.7765C5.28638 11.7765 5.13924 11.3853 5.29915 11.1959C5.47889 10.9831 5.96808 10.9695 5.96808 10.9695L9.22734 10.9482C9.22734 10.9482 9.53442 10.9994 9.75419 11.1608C9.93539 11.294 10.0368 11.543 10.0368 11.543C10.0368 11.543 10.5637 12.8752 11.2612 14.0804C12.6228 16.4331 13.257 16.9477 13.7193 16.6957C14.3929 16.3283 14.1909 13.3698 14.1909 13.3698C14.1909 13.3698 14.2032 12.296 13.8517 11.8177C13.5795 11.4475 13.0663 11.3391 12.8395 11.3089C12.6561 11.2844 12.9571 10.8587 13.3473 10.6676C13.9338 10.3803 14.9694 10.3641 16.1933 10.3765C17.1468 10.3863 17.4214 10.4458 17.7942 10.5357C18.6592 10.7446 18.6322 11.4138 18.574 12.8578L18.574 12.8579C18.5567 13.2893 18.5365 13.7899 18.5365 14.3681C18.5365 14.4983 18.5327 14.6371 18.5288 14.7798V14.7799C18.5085 15.5193 18.4853 16.3656 18.9722 16.6802C19.2218 16.8415 19.8326 16.7042 21.3598 14.111C22.0835 12.8819 22.6266 11.4368 22.6266 11.4368C22.6266 11.4368 22.7448 11.1791 22.9292 11.0688C23.1176 10.9561 23.3721 10.9907 23.3721 10.9907L26.8018 10.9695C26.8018 10.9695 27.8325 10.8466 27.9992 11.3118C28.1742 11.8001 27.6141 12.9402 26.213 14.8077C24.8822 16.5813 24.2355 17.2332 24.2963 17.8106C24.3396 18.2221 24.7424 18.5959 25.5132 19.311L25.5663 19.3603C27.2544 20.9272 27.7046 21.7501 27.8116 21.9456C27.8202 21.9615 27.8266 21.9732 27.8313 21.9809C28.5869 23.2337 26.9934 23.332 26.9934 23.332L23.9473 23.3746C23.9473 23.3746 23.2926 23.5041 22.4312 22.9125C21.9808 22.6033 21.5405 22.0985 21.1209 21.6174L21.1209 21.6174C20.4793 20.8818 19.8863 20.2019 19.3801 20.3624C18.5312 20.6319 18.5579 22.4613 18.5579 22.4613C18.5579 22.4613 18.564 22.852 18.3705 23.0601C18.16 23.2866 17.7483 23.332 17.7483 23.332Z" fill="#121723"/>
</svg>
