<svg width="40" height="40" viewBox="0 0 40 40" fill="none" xmlns="http://www.w3.org/2000/svg">
<g clip-path="url(#clip0_24531_4833)">
<path d="M26.2997 36.6667V23.7667H30.62L31.2663 18.7519H26.2997V15.5519C26.2997 14.1 26.7034 13.1093 28.7849 13.1093H31.4404V8.62408C30.1549 8.48769 28.8628 8.42154 27.57 8.42594C23.7423 8.42594 21.1219 10.763 21.1219 15.0556V18.7519H16.7923V23.7667H21.1219V36.6667H5.18486C4.69372 36.6667 4.22269 36.4716 3.8754 36.1243C3.52811 35.777 3.33301 35.306 3.33301 34.8148V5.1852C3.33301 4.69405 3.52811 4.22303 3.8754 3.87574C4.22269 3.52845 4.69372 3.33334 5.18486 3.33334H34.8145C35.3056 3.33334 35.7767 3.52845 36.124 3.87574C36.4712 4.22303 36.6663 4.69405 36.6663 5.1852V34.8148C36.6663 35.306 36.4712 35.777 36.124 36.1243C35.7767 36.4716 35.3056 36.6667 34.8145 36.6667H26.2997Z" fill="#A1A6B4"/>
</g>
<defs>
<clipPath id="clip0_24531_4833">
<rect width="40" height="40" fill="white"/>
</clipPath>
</defs>
</svg>
